<?xml version="1.0" standalone="no"?>
<!DOCTYPE svg PUBLIC "-//W3C//DTD SVG 20010904//EN"
 "http://www.w3.org/TR/2001/REC-SVG-20010904/DTD/svg10.dtd">
<svg version="1.0" xmlns="http://www.w3.org/2000/svg"
 width="608.000000pt" height="608.000000pt" viewBox="0 0 608.000000 608.000000"
 preserveAspectRatio="xMidYMid meet">
<metadata>
Created by potrace 1.14, written by Peter Selinger 2001-2017
</metadata>
<g transform="translate(0.000000,608.000000) scale(0.100000,-0.100000)"
fill="#000000" stroke="none">
<path d="M2757 5623 c-3 -5 -5 -253 -5 -553 0 -300 -1 -556 -1 -570 -1 -21 -6
-25 -38 -28 -40 -3 -56 -5 -123 -21 -25 -5 -58 -12 -74 -15 -52 -9 -218 -67
-301 -104 -74 -34 -253 -132 -279 -153 -39 -32 -106 -79 -114 -79 -6 0 -190
180 -410 401 l-400 400 -142 -141 -142 -142 405 -406 406 -405 -33 -41 c-42
-51 -126 -181 -126 -194 0 -6 -3 -12 -7 -14 -10 -4 -77 -143 -107 -221 -37
-95 -39 -101 -42 -116 -1 -8 -9 -35 -17 -60 -8 -25 -22 -89 -31 -141 -10 -52
-20 -106 -24 -120 l-7 -25 -573 0 -572 0 2 -200 3 -200 572 0 c459 1 573 -2
574 -12 1 -7 2 -16 3 -20 3 -10 18 -121 18 -130 0 -5 4 -18 9 -31 5 -13 11
-35 14 -50 15 -88 99 -305 163 -422 45 -83 137 -223 157 -240 8 -7 15 -18 15
-24 0 -6 -182 -193 -405 -416 l-405 -405 137 -137 c76 -76 141 -138 145 -138
5 0 190 181 411 403 l403 403 92 -65 c51 -36 119 -81 152 -99 l59 -32 19 37
c10 21 51 100 91 176 40 76 71 141 68 143 -10 10 -120 74 -127 74 -5 0 -10 4
-12 8 -1 5 -21 22 -43 38 -105 76 -233 207 -311 317 -51 71 -141 236 -165 302
-39 103 -71 225 -85 320 -9 58 -12 323 -4 366 5 24 11 62 14 84 12 78 16 91
40 165 86 267 212 460 422 650 180 162 442 288 679 326 17 2 53 8 81 13 56 8
297 7 354 -3 38 -6 179 -34 195 -39 53 -16 122 -42 133 -50 6 -5 12 -7 12 -3
0 20 257 -129 350 -203 114 -90 277 -278 341 -391 26 -46 29 -46 122 7 34 19
87 49 117 65 30 17 74 42 98 55 l43 25 -27 47 c-15 25 -42 67 -60 94 -19 26
-34 49 -34 52 0 3 -11 18 -25 33 -14 15 -25 33 -25 40 0 8 177 191 392 408
216 216 394 397 395 401 2 5 -59 70 -135 146 l-138 138 -404 -405 c-223 -222
-407 -401 -410 -397 -9 12 -143 105 -194 135 -118 68 -342 167 -413 181 -10 1
-54 12 -98 23 -71 18 -122 28 -190 37 -11 1 -23 3 -27 4 -5 0 -8 243 -8 539 1
295 1 554 0 575 l0 37 -194 0 c-107 0 -197 -3 -199 -7z"/>
<path d="M5803 3470 c-18 -5 -18 -45 -17 -1025 1 -561 2 -1022 3 -1025 0 -3
66 -6 146 -6 l145 0 -2 1030 -3 1030 -127 1 c-70 0 -135 -2 -145 -5z"/>
<path d="M3119 3365 c-2 -2 -35 -6 -74 -10 -207 -18 -306 -55 -395 -145 -99
-101 -137 -219 -134 -415 1 -110 4 -135 25 -230 41 -180 170 -271 429 -299 19
-3 64 -7 100 -11 36 -3 76 -8 90 -10 14 -2 59 -6 100 -10 41 -4 86 -8 100 -10
14 -2 50 -6 80 -10 72 -8 114 -22 133 -43 38 -41 42 -316 7 -383 -28 -52 -115
-86 -245 -96 -135 -10 -428 -5 -610 12 -33 3 -79 7 -102 9 -23 2 -46 7 -52 11
-11 6 -16 -9 -11 -30 5 -22 2 -124 -5 -134 -3 -6 -3 -11 2 -11 4 0 7 -25 6
-54 -2 -30 1 -57 5 -60 4 -2 48 -7 97 -11 50 -4 108 -8 130 -10 272 -21 432
-21 681 0 257 22 399 155 431 405 15 124 7 345 -18 435 -6 22 -13 49 -16 61
-9 36 -77 118 -118 141 -39 23 -113 48 -168 57 -15 3 -35 7 -45 10 -9 2 -53 7
-97 11 -44 3 -93 8 -110 10 -50 7 -147 17 -190 21 -38 3 -58 5 -172 20 -80 10
-121 31 -133 69 -27 82 -14 295 20 327 39 37 102 60 193 72 96 12 401 13 517
2 36 -3 85 -8 110 -11 25 -2 66 -7 93 -10 44 -5 47 -4 48 17 1 27 1 240 0 249
-2 13 -144 36 -274 44 -40 3 -110 8 -157 11 -134 9 -220 10 -220 2 0 -4 -11
-3 -24 2 -13 5 -26 7 -27 5z"/>
<path d="M4648 2855 c-2 -2 -30 -6 -63 -9 -33 -2 -60 -5 -60 -6 0 -1 -11 -3
-25 -6 -50 -8 -157 -57 -186 -84 -48 -46 -61 -65 -84 -126 -24 -65 -26 -73
-39 -189 -9 -79 -7 -602 3 -660 21 -136 45 -193 106 -256 30 -30 91 -72 110
-74 3 0 10 -3 15 -6 12 -8 50 -17 101 -25 21 -3 59 -9 82 -14 50 -9 416 -6
477 5 108 17 226 70 267 119 36 44 74 131 84 197 19 121 26 550 12 714 -17
192 -75 298 -200 361 -42 21 -64 28 -163 49 -33 7 -431 16 -437 10z m403 -282
c57 -20 89 -53 95 -100 22 -177 18 -602 -6 -693 -13 -47 -59 -86 -116 -97 -51
-10 -358 -10 -407 0 -78 15 -115 48 -124 107 -15 106 -20 392 -9 574 9 166 40
207 172 224 103 14 336 5 395 -15z"/>
</g>
</svg>
