<?xml version="1.0" encoding="utf-8"?>
<!-- Generator: Adobe Illustrator 25.2.1, SVG Export Plug-In . SVG Version: 6.00 Build 0)  -->
<svg version="1.1" id="Capa_1" xmlns="http://www.w3.org/2000/svg" xmlns:xlink="http://www.w3.org/1999/xlink" x="0px" y="0px"
	 viewBox="0 0 76.2 65" style="enable-background:new 0 0 76.2 65;" xml:space="preserve">
<style type="text/css">
	.st0{fill:none;stroke:#FDC400;stroke-width:5;stroke-miterlimit:10;}
	.st1{fill:#FDC400;stroke:#FDC400;stroke-miterlimit:10;}
</style>
<g>
	<path class="st0" d="M37,16.9c0-5.6,0-11.2,0-16.9"/>
	<path class="st0" d="M16.8,37C11.2,37,5.6,37,0,37"/>
	<path class="st0" d="M22.6,22.6c-3.9-3.9-7.8-7.8-11.7-11.7"/>
	<path class="st0" d="M51.2,22.8c4-4,8-8,11.9-11.9"/>
	<path class="st0" d="M10.8,63.2c4-4,7.9-7.9,11.9-11.9"/>
	<g>
		<path class="st0" d="M27.7,55c-6.5-3.4-10.9-10.1-10.9-18c0-11.2,9.1-20.2,20.2-20.2c7.7,0,14.3,4.3,17.8,10.6"/>
		<path class="st0" d="M54.8,27.3C51.4,21,44.7,16.8,37,16.8c-11.2,0-20.2,9.1-20.2,20.2c0,7.8,4.4,14.6,10.9,18"/>
	</g>
</g>
<g>
	<path class="st1" d="M36.6,52.4c-1.5-0.1-2.8-0.2-4-0.3v-2.6c2.9,0.3,5.3,0.4,7.3,0.4c1.2,0,2.2-0.1,2.9-0.2
		c0.7-0.1,1.3-0.3,1.8-0.6c0.4-0.3,0.7-0.7,0.9-1.2c0.1-0.5,0.2-1.2,0.2-2.1c0-1-0.1-1.8-0.2-2.2s-0.4-0.8-0.8-1
		c-0.4-0.2-1.1-0.3-2.1-0.4l-5.7-0.6c-1.4-0.2-2.4-0.5-3.1-1c-0.7-0.5-1.2-1.2-1.4-2c-0.2-0.8-0.4-1.9-0.4-3.2c0-1.8,0.3-3.2,1-4.1
		c0.6-0.9,1.5-1.6,2.7-1.9c1.1-0.3,2.7-0.5,4.6-0.5c1.3,0,2.6,0.1,3.9,0.2c1.3,0.1,2.4,0.2,3.2,0.4v2.5c-0.8-0.1-1.9-0.2-3.1-0.3
		s-2.4-0.1-3.5-0.1c-1.2,0-2.3,0.1-3,0.2c-0.8,0.1-1.3,0.3-1.8,0.6c-0.5,0.3-0.8,0.6-0.9,1.1c-0.1,0.4-0.2,1.1-0.2,1.9
		c0,0.9,0.1,1.6,0.2,2c0.1,0.4,0.4,0.7,0.8,0.9c0.4,0.2,1,0.3,1.9,0.4l5.6,0.6c1.3,0.1,2.4,0.4,3.1,0.7c0.7,0.3,1.3,0.9,1.6,1.8
		c0.3,0.8,0.5,2.1,0.5,3.8c0,2-0.3,3.5-0.9,4.5c-0.6,1-1.5,1.6-2.5,1.9c-1,0.3-2.5,0.4-4.3,0.4C39.5,52.6,38.1,52.5,36.6,52.4z"/>
	<path class="st1" d="M55.3,51.9c-1-0.5-1.7-1.3-2-2.4c-0.3-1.1-0.4-3-0.4-5.6s0.1-4.5,0.4-5.6c0.3-1.1,0.9-2,2-2.4
		c1-0.5,2.7-0.7,5.1-0.7c2.4,0,4.1,0.2,5.1,0.7c1,0.5,1.7,1.3,2,2.4c0.3,1.1,0.4,3,0.4,5.6s-0.1,4.5-0.4,5.6c-0.3,1.1-0.9,2-2,2.4
		c-1,0.5-2.7,0.7-5.1,0.7C58,52.6,56.3,52.3,55.3,51.9z M63.8,49.7c0.6-0.3,1-0.8,1.2-1.6c0.1-0.8,0.2-2.2,0.2-4.3
		c0-2.1-0.1-3.5-0.2-4.3c-0.1-0.8-0.5-1.3-1.2-1.6c-0.6-0.3-1.8-0.4-3.4-0.4s-2.8,0.1-3.4,0.4c-0.6,0.3-1,0.8-1.2,1.6
		c-0.1,0.8-0.2,2.2-0.2,4.3c0,2.1,0.1,3.5,0.2,4.3c0.1,0.8,0.5,1.3,1.2,1.6c0.6,0.3,1.8,0.4,3.4,0.4S63.2,50,63.8,49.7z"/>
	<path class="st1" d="M73,52.3V27.5h2.7v24.8H73z"/>
</g>
</svg>
