<?xml version="1.0" encoding="utf-8"?>
<!-- Generator: Adobe Illustrator 25.2.1, SVG Export Plug-In . SVG Version: 6.00 Build 0)  -->
<svg version="1.1" id="Capa_1" xmlns="http://www.w3.org/2000/svg" xmlns:xlink="http://www.w3.org/1999/xlink" x="0px" y="0px"
	 viewBox="0 0 145.3 39.7" style="enable-background:new 0 0 145.3 39.7;" xml:space="preserve">
<style type="text/css">
	.st0{fill:none;stroke:#FDC400;stroke-width:3;stroke-miterlimit:10;}
	.st1{fill:#FDC400;}
</style>
<g>
	<path class="st0" d="M135,22.6c3.4,0,6.9,0,10.3,0"/>
	<path class="st0" d="M122.7,10.3c0-3.4,0-6.9,0-10.3"/>
	<path class="st0" d="M131.5,13.8c2.4-2.4,4.8-4.8,7.2-7.2"/>
	<path class="st0" d="M131.4,31.3c2.4,2.4,4.9,4.9,7.3,7.3"/>
	<path class="st0" d="M106.7,6.6c2.4,2.4,4.8,4.8,7.3,7.3"/>
	<g>
		<path class="st0" d="M111.7,16.9c2.1-4,6.2-6.7,11-6.7c6.8,0,12.4,5.5,12.4,12.4c0,4.7-2.6,8.8-6.5,10.9"/>
		<path class="st0" d="M128.6,33.5c3.8-2.1,6.5-6.2,6.5-10.9c0-6.8-5.5-12.4-12.4-12.4c-4.8,0-8.9,2.7-11,6.7"/>
	</g>
</g>
<path class="st1" d="M6.2,38.7c-2-0.1-3.8-0.3-5.3-0.4v-3.5c3.9,0.4,7.1,0.6,9.7,0.6c1.6,0,2.9-0.1,3.8-0.2c0.9-0.1,1.7-0.4,2.4-0.7
	c0.6-0.4,1-0.9,1.2-1.6c0.2-0.7,0.3-1.6,0.3-2.8c0-1.4-0.1-2.4-0.2-3s-0.5-1-1.1-1.3s-1.5-0.5-2.8-0.6l-7.6-0.8
	c-1.8-0.2-3.2-0.6-4.2-1.3c-0.9-0.7-1.6-1.5-1.9-2.6C0.2,19.3,0,17.8,0,16.1c0-2.4,0.4-4.3,1.3-5.5c0.8-1.3,2-2.1,3.6-2.5
	C6.4,7.6,8.5,7.4,11,7.4c1.7,0,3.5,0.1,5.3,0.2c1.8,0.1,3.2,0.3,4.2,0.5v3.4c-1.1-0.2-2.5-0.3-4.2-0.4S13.1,11,11.7,11
	c-1.7,0-3,0.1-4,0.2c-1,0.1-1.8,0.4-2.4,0.8c-0.6,0.4-1,0.8-1.2,1.4c-0.2,0.6-0.3,1.4-0.3,2.5c0,1.2,0.1,2.1,0.3,2.7
	c0.2,0.6,0.5,1,1,1.2c0.5,0.3,1.3,0.4,2.5,0.6l7.5,0.8c1.8,0.2,3.2,0.5,4.2,0.9s1.7,1.3,2.1,2.4c0.4,1.1,0.6,2.8,0.6,5.1
	c0,2.7-0.4,4.7-1.3,6.1c-0.8,1.3-2,2.2-3.4,2.5c-1.4,0.4-3.3,0.6-5.8,0.6C10.1,38.9,8.2,38.8,6.2,38.7z"/>
<path class="st1" d="M31.2,37.9c-1.4-0.6-2.2-1.7-2.6-3.3s-0.6-4-0.6-7.5s0.2-6,0.6-7.5s1.2-2.6,2.6-3.3c1.4-0.6,3.7-1,6.8-1
	c3.2,0,5.4,0.3,6.8,1c1.4,0.6,2.2,1.7,2.6,3.3c0.4,1.5,0.6,4,0.6,7.5s-0.2,6-0.6,7.5c-0.4,1.5-1.2,2.6-2.6,3.3c-1.4,0.6-3.6,1-6.8,1
	C34.9,38.9,32.6,38.6,31.2,37.9z M42.6,35c0.8-0.4,1.3-1.1,1.5-2.1c0.2-1,0.3-2.9,0.3-5.7c0-2.8-0.1-4.7-0.3-5.7
	c-0.2-1-0.7-1.7-1.5-2.1c-0.8-0.4-2.3-0.6-4.5-0.6s-3.7,0.2-4.5,0.6c-0.8,0.4-1.4,1.1-1.6,2.1c-0.2,1-0.3,2.9-0.3,5.7
	c0,2.8,0.1,4.7,0.3,5.7c0.2,1,0.7,1.7,1.6,2.1c0.8,0.4,2.4,0.6,4.5,0.6S41.7,35.4,42.6,35z"/>
<path class="st1" d="M54.8,38.5V5.3h3.6v33.2H54.8z"/>
<path class="st1" d="M66.5,37.4c-1.2-1-1.8-2.7-1.8-5.2c0-1.8,0.2-3.1,0.6-4.1c0.4-1,1.1-1.7,2.1-2.1c1-0.4,2.4-0.7,4.2-0.7
	c0.9,0,3.7,0.1,8.5,0.2v-1.3c0-1.8-0.2-3.1-0.5-3.8s-1-1.2-1.9-1.4c-0.9-0.2-2.5-0.3-4.6-0.3c-1,0-2.2,0.1-3.6,0.2
	c-1.4,0.1-2.6,0.2-3.4,0.3V16c2.4-0.4,5.1-0.6,8.3-0.6c2.7,0,4.7,0.3,6,0.8c1.3,0.6,2.2,1.4,2.7,2.7c0.4,1.2,0.7,3,0.7,5.4v14.3
	h-3.3l-0.2-3.2h-0.3c-0.6,1.4-1.6,2.4-3,2.8c-1.4,0.5-3,0.7-4.9,0.7C69.6,38.9,67.7,38.4,66.5,37.4z M77.3,35.2
	c0.9-0.3,1.6-0.8,2-1.6c0.6-1.1,0.9-2.6,0.9-4.5v-1h-7.6c-1.3,0-2.2,0.1-2.8,0.3s-1,0.5-1.2,1.1c-0.2,0.5-0.4,1.3-0.4,2.4
	c0,1.1,0.1,1.9,0.4,2.4s0.8,0.9,1.5,1c0.7,0.2,1.9,0.3,3.4,0.3C75.1,35.6,76.3,35.5,77.3,35.2z"/>
<path class="st1" d="M91.7,15.7h3.2l0.2,4.3h0.3c0.5-1.8,1.4-3,2.7-3.7c1.3-0.7,2.9-1,4.9-1v3.9c-2.1,0-3.6,0.3-4.7,0.9
	c-1.1,0.6-1.9,1.6-2.3,2.9c-0.4,1.3-0.6,3-0.6,5.3v10.2h-3.6V15.7z"/>
<path class="st1" d="M107.9,24.5v-2h1.9v2H107.9z M108,38.7V27.6h1.8v11.1H108z"/>
<path class="st1" d="M115.2,38.8c-0.8-0.1-1.4-0.1-2-0.2V37c1.4,0.2,2.8,0.2,4,0.2c0.7,0,1.3-0.1,1.6-0.2c0.3-0.1,0.6-0.3,0.7-0.5
	c0.1-0.2,0.2-0.6,0.2-1s0-0.8-0.1-1c-0.1-0.2-0.2-0.3-0.4-0.4c-0.2-0.1-0.5-0.1-0.9-0.2l-2.9-0.3c-0.7-0.1-1.2-0.2-1.5-0.5
	c-0.4-0.2-0.6-0.6-0.7-1c-0.1-0.4-0.2-1-0.2-1.6c0-0.9,0.2-1.7,0.5-2.1c0.3-0.5,0.8-0.8,1.4-0.9c0.6-0.1,1.4-0.2,2.4-0.2
	c0.6,0,1.2,0,1.8,0.1c0.7,0.1,1.2,0.1,1.7,0.2v1.6c-1.1-0.2-2.3-0.3-3.5-0.3c-0.7,0-1.2,0-1.5,0.1c-0.3,0.1-0.6,0.2-0.8,0.4
	c-0.2,0.2-0.3,0.6-0.3,1.1c0,0.4,0,0.7,0.1,0.9c0.1,0.2,0.2,0.3,0.4,0.4c0.2,0.1,0.5,0.1,0.9,0.2l3,0.3c0.6,0.1,1.1,0.2,1.5,0.4
	c0.3,0.2,0.6,0.5,0.7,0.9c0.2,0.4,0.2,1,0.2,1.9c0,0.9-0.1,1.6-0.4,2.1c-0.3,0.5-0.7,0.8-1.3,1c-0.6,0.2-1.4,0.3-2.3,0.3
	C116.6,38.9,116,38.8,115.2,38.8z"/>
</svg>
